<svg width="228" height="189" viewBox="0 0 228 189" fill="none" xmlns="http://www.w3.org/2000/svg">
<path d="M24.7952 157C24.6885 157 24.6032 156.968 24.5392 156.904C24.4752 156.84 24.4432 156.755 24.4432 156.648V146.168C24.4432 146.051 24.4752 145.96 24.5392 145.896C24.6032 145.832 24.6885 145.8 24.7952 145.8H32.2672C32.3845 145.8 32.4752 145.832 32.5392 145.896C32.6032 145.96 32.6352 146.051 32.6352 146.168V156.648C32.6352 156.755 32.6032 156.84 32.5392 156.904C32.4752 156.968 32.3845 157 32.2672 157H31.9792C31.8725 157 31.7872 156.968 31.7232 156.904C31.6592 156.84 31.6272 156.755 31.6272 156.648V146.76H25.4512V156.648C25.4512 156.755 25.4192 156.84 25.3552 156.904C25.2912 156.968 25.2005 157 25.0832 157H24.7952ZM37.8863 157.16C36.8517 157.16 36.0303 156.824 35.4223 156.152C34.8143 155.469 34.4677 154.579 34.3823 153.48C34.3717 153.32 34.3663 153.107 34.3663 152.84C34.3663 152.573 34.3717 152.36 34.3823 152.2C34.4357 151.475 34.6063 150.835 34.8943 150.28C35.1823 149.725 35.577 149.293 36.0783 148.984C36.5903 148.675 37.193 148.52 37.8863 148.52C38.633 148.52 39.2677 148.685 39.7903 149.016C40.313 149.347 40.713 149.821 40.9903 150.44C41.2783 151.059 41.4223 151.795 41.4223 152.648V152.888C41.4223 152.995 41.385 153.08 41.3103 153.144C41.2463 153.208 41.161 153.24 41.0543 153.24H35.3583C35.3583 153.24 35.3583 153.261 35.3583 153.304C35.3583 153.347 35.3583 153.379 35.3583 153.4C35.3797 153.88 35.4917 154.339 35.6943 154.776C35.897 155.203 36.185 155.555 36.5583 155.832C36.9317 156.099 37.3743 156.232 37.8863 156.232C38.345 156.232 38.7237 156.163 39.0223 156.024C39.3317 155.885 39.577 155.736 39.7583 155.576C39.9397 155.405 40.057 155.277 40.1103 155.192C40.2063 155.053 40.281 154.973 40.3343 154.952C40.3877 154.92 40.473 154.904 40.5903 154.904H40.8463C40.9423 154.904 41.0223 154.936 41.0863 155C41.161 155.053 41.193 155.128 41.1823 155.224C41.1717 155.373 41.0863 155.56 40.9263 155.784C40.777 155.997 40.5583 156.211 40.2703 156.424C39.993 156.637 39.6517 156.813 39.2463 156.952C38.841 157.091 38.3877 157.16 37.8863 157.16ZM35.3583 152.344H40.4463V152.28C40.4463 151.747 40.345 151.267 40.1423 150.84C39.9397 150.413 39.6463 150.077 39.2623 149.832C38.8783 149.576 38.4197 149.448 37.8863 149.448C37.353 149.448 36.8943 149.576 36.5103 149.832C36.137 150.077 35.849 150.413 35.6463 150.84C35.4543 151.267 35.3583 151.747 35.3583 152.28V152.344ZM43.2607 160.04C43.154 160.04 43.0687 160.008 43.0047 159.944C42.9407 159.88 42.9087 159.795 42.9087 159.688V149.032C42.9087 148.925 42.9407 148.84 43.0047 148.776C43.0687 148.712 43.154 148.68 43.2607 148.68H43.5327C43.6394 148.68 43.7247 148.712 43.7887 148.776C43.8527 148.84 43.8847 148.925 43.8847 149.032V149.784C44.1514 149.421 44.498 149.123 44.9247 148.888C45.362 148.643 45.9114 148.52 46.5727 148.52C47.202 148.52 47.73 148.632 48.1567 148.856C48.5834 149.069 48.93 149.357 49.1967 149.72C49.4634 150.083 49.6607 150.488 49.7887 150.936C49.9167 151.384 49.986 151.843 49.9967 152.312C50.0074 152.472 50.0127 152.648 50.0127 152.84C50.0127 153.032 50.0074 153.208 49.9967 153.368C49.986 153.837 49.9167 154.296 49.7887 154.744C49.6607 155.192 49.4634 155.597 49.1967 155.96C48.93 156.323 48.5834 156.616 48.1567 156.84C47.73 157.053 47.202 157.16 46.5727 157.16C45.9114 157.16 45.362 157.037 44.9247 156.792C44.498 156.547 44.1514 156.248 43.8847 155.896V159.688C43.8847 159.795 43.8527 159.88 43.7887 159.944C43.7247 160.008 43.6394 160.04 43.5327 160.04H43.2607ZM46.4767 156.232C47.106 156.232 47.602 156.093 47.9647 155.816C48.3274 155.539 48.5887 155.176 48.7487 154.728C48.9087 154.28 48.9994 153.8 49.0207 153.288C49.0314 152.989 49.0314 152.691 49.0207 152.392C48.9994 151.88 48.9087 151.4 48.7487 150.952C48.5887 150.504 48.3274 150.141 47.9647 149.864C47.602 149.587 47.106 149.448 46.4767 149.448C45.8687 149.448 45.378 149.592 45.0047 149.88C44.6314 150.168 44.354 150.531 44.1727 150.968C44.002 151.395 43.906 151.827 43.8847 152.264C43.874 152.424 43.8687 152.632 43.8687 152.888C43.8687 153.144 43.874 153.352 43.8847 153.512C43.8954 153.939 43.9914 154.36 44.1727 154.776C44.3647 155.192 44.6474 155.539 45.0207 155.816C45.4047 156.093 45.89 156.232 46.4767 156.232ZM54.6376 157.16C53.6029 157.16 52.7816 156.824 52.1736 156.152C51.5656 155.469 51.2189 154.579 51.1336 153.48C51.1229 153.32 51.1176 153.107 51.1176 152.84C51.1176 152.573 51.1229 152.36 51.1336 152.2C51.1869 151.475 51.3576 150.835 51.6456 150.28C51.9336 149.725 52.3283 149.293 52.8296 148.984C53.3416 148.675 53.9443 148.52 54.6376 148.52C55.3843 148.52 56.0189 148.685 56.5416 149.016C57.0643 149.347 57.4643 149.821 57.7416 150.44C58.0296 151.059 58.1736 151.795 58.1736 152.648V152.888C58.1736 152.995 58.1363 153.08 58.0616 153.144C57.9976 153.208 57.9123 153.24 57.8056 153.24H52.1096C52.1096 153.24 52.1096 153.261 52.1096 153.304C52.1096 153.347 52.1096 153.379 52.1096 153.4C52.1309 153.88 52.2429 154.339 52.4456 154.776C52.6483 155.203 52.9363 155.555 53.3096 155.832C53.6829 156.099 54.1256 156.232 54.6376 156.232C55.0963 156.232 55.4749 156.163 55.7736 156.024C56.0829 155.885 56.3283 155.736 56.5096 155.576C56.6909 155.405 56.8083 155.277 56.8616 155.192C56.9576 155.053 57.0323 154.973 57.0856 154.952C57.1389 154.92 57.2243 154.904 57.3416 154.904H57.5976C57.6936 154.904 57.7736 154.936 57.8376 155C57.9123 155.053 57.9443 155.128 57.9336 155.224C57.9229 155.373 57.8376 155.56 57.6776 155.784C57.5283 155.997 57.3096 156.211 57.0216 156.424C56.7443 156.637 56.4029 156.813 55.9976 156.952C55.5923 157.091 55.1389 157.16 54.6376 157.16ZM52.1096 152.344H57.1976V152.28C57.1976 151.747 57.0963 151.267 56.8936 150.84C56.6909 150.413 56.3976 150.077 56.0136 149.832C55.6296 149.576 55.1709 149.448 54.6376 149.448C54.1043 149.448 53.6456 149.576 53.2616 149.832C52.8883 150.077 52.6003 150.413 52.3976 150.84C52.2056 151.267 52.1096 151.747 52.1096 152.28V152.344ZM62.188 157C62.0813 157 61.996 156.968 61.932 156.904C61.868 156.84 61.836 156.755 61.836 156.648V149.608H58.908C58.8013 149.608 58.716 149.576 58.652 149.512C58.588 149.448 58.556 149.363 58.556 149.256V149.032C58.556 148.925 58.588 148.84 58.652 148.776C58.716 148.712 58.8013 148.68 58.908 148.68H65.74C65.8466 148.68 65.932 148.712 65.996 148.776C66.06 148.84 66.092 148.925 66.092 149.032V149.256C66.092 149.363 66.06 149.448 65.996 149.512C65.932 149.576 65.8466 149.608 65.74 149.608H62.812V156.648C62.812 156.755 62.78 156.84 62.716 156.904C62.652 156.968 62.5666 157 62.46 157H62.188ZM72.0451 157C71.9384 157 71.8531 156.968 71.7891 156.904C71.7251 156.84 71.6931 156.755 71.6931 156.648V153.896H69.6451V153.816C68.6958 153.816 68.0024 153.571 67.5651 153.08C67.1277 152.579 66.9091 151.96 66.9091 151.224C66.9091 150.339 67.1597 149.693 67.6611 149.288C68.1624 148.883 68.9464 148.68 70.0131 148.68H72.3171C72.4238 148.68 72.5091 148.712 72.5731 148.776C72.6371 148.84 72.6691 148.925 72.6691 149.032V156.648C72.6691 156.755 72.6371 156.84 72.5731 156.904C72.5091 156.968 72.4238 157 72.3171 157H72.0451ZM67.0211 157C66.9357 157 66.8611 156.968 66.7971 156.904C66.7331 156.84 66.7011 156.765 66.7011 156.68C66.7011 156.637 66.7064 156.589 66.7171 156.536C66.7384 156.483 66.7757 156.424 66.8291 156.36L68.7971 153.544H69.9971L67.7411 156.76C67.6984 156.813 67.6344 156.867 67.5491 156.92C67.4744 156.973 67.3944 157 67.3091 157H67.0211ZM69.7091 152.968H71.6931V149.608H69.8691C69.1864 149.608 68.6851 149.725 68.3651 149.96C68.0451 150.195 67.8851 150.616 67.8851 151.224C67.8851 151.725 68.0291 152.141 68.3171 152.472C68.6157 152.803 69.0798 152.968 69.7091 152.968ZM74.022 157C73.926 157 73.8513 156.984 73.798 156.952C73.7446 156.909 73.718 156.851 73.718 156.776C73.718 156.723 73.7446 156.653 73.798 156.568L76.598 152.632L74.102 149.096C74.0806 149.053 74.0646 149.016 74.054 148.984C74.0433 148.952 74.038 148.925 74.038 148.904C74.038 148.829 74.0646 148.776 74.118 148.744C74.1713 148.701 74.246 148.68 74.342 148.68H74.662C74.758 148.68 74.838 148.701 74.902 148.744C74.966 148.776 75.0246 148.835 75.078 148.92L77.43 152.28H78.838V149.032C78.838 148.925 78.87 148.84 78.934 148.776C78.998 148.712 79.0833 148.68 79.19 148.68H79.462C79.5686 148.68 79.654 148.712 79.718 148.776C79.782 148.84 79.814 148.925 79.814 149.032V152.28H81.158L83.542 148.92C83.5953 148.835 83.654 148.776 83.718 148.744C83.782 148.701 83.862 148.68 83.958 148.68H84.278C84.374 148.68 84.4486 148.701 84.502 148.744C84.566 148.776 84.598 148.829 84.598 148.904C84.598 148.925 84.5873 148.952 84.566 148.984C84.5553 149.016 84.5393 149.053 84.518 149.096L82.022 152.632L84.822 156.568C84.8753 156.632 84.902 156.701 84.902 156.776C84.902 156.851 84.8753 156.909 84.822 156.952C84.7686 156.984 84.694 157 84.598 157H84.182C84.086 157 84.006 156.984 83.942 156.952C83.878 156.909 83.8193 156.851 83.766 156.776L81.238 153.208H79.814V156.648C79.814 156.755 79.782 156.84 79.718 156.904C79.654 156.968 79.5686 157 79.462 157H79.19C79.0833 157 78.998 156.968 78.934 156.904C78.87 156.84 78.838 156.755 78.838 156.648V153.208H77.414L74.854 156.776C74.8113 156.851 74.7526 156.909 74.678 156.952C74.614 156.984 74.534 157 74.438 157H74.022ZM86.3103 157C86.2037 157 86.1183 156.968 86.0543 156.904C85.9903 156.84 85.9583 156.755 85.9583 156.648V149.032C85.9583 148.925 85.9903 148.84 86.0543 148.776C86.1183 148.712 86.2037 148.68 86.3103 148.68H86.5823C86.689 148.68 86.7743 148.712 86.8383 148.776C86.9023 148.84 86.9343 148.925 86.9343 149.032V152.28H88.6463L90.9983 148.92C91.0517 148.835 91.1103 148.776 91.1743 148.744C91.2383 148.701 91.3183 148.68 91.4143 148.68H91.7343C91.8303 148.68 91.905 148.701 91.9583 148.744C92.0223 148.776 92.0543 148.829 92.0543 148.904C92.0543 148.925 92.0437 148.952 92.0223 148.984C92.0117 149.016 91.9957 149.053 91.9743 149.096L89.4943 152.648L92.2783 156.568C92.3317 156.632 92.3583 156.701 92.3583 156.776C92.3583 156.851 92.3317 156.909 92.2783 156.952C92.225 156.984 92.1503 157 92.0543 157H91.6383C91.5423 157 91.4623 156.984 91.3983 156.952C91.3343 156.909 91.2757 156.851 91.2223 156.776L88.6943 153.24H86.9343V156.648C86.9343 156.755 86.9023 156.84 86.8383 156.904C86.7743 156.968 86.689 157 86.5823 157H86.3103ZM95.6521 157.16C95.1401 157.16 94.6654 157.053 94.2281 156.84C93.8014 156.627 93.4547 156.344 93.1881 155.992C92.9214 155.629 92.7881 155.224 92.7881 154.776C92.7881 154.051 93.0814 153.469 93.6681 153.032C94.2547 152.595 95.0174 152.312 95.9561 152.184L98.4841 151.832V151.272C98.4841 150.707 98.3081 150.264 97.9561 149.944C97.6147 149.613 97.0654 149.448 96.3081 149.448C95.7534 149.448 95.3054 149.56 94.9641 149.784C94.6227 149.997 94.3881 150.28 94.2601 150.632C94.2067 150.792 94.1054 150.872 93.9561 150.872H93.7001C93.5721 150.872 93.4814 150.84 93.4281 150.776C93.3747 150.701 93.3481 150.616 93.3481 150.52C93.3481 150.371 93.4014 150.184 93.5081 149.96C93.6254 149.736 93.8014 149.517 94.0361 149.304C94.2707 149.08 94.5747 148.893 94.9481 148.744C95.3214 148.595 95.7747 148.52 96.3081 148.52C96.9374 148.52 97.4547 148.605 97.8601 148.776C98.2761 148.947 98.5961 149.171 98.8201 149.448C99.0547 149.715 99.2201 150.013 99.3161 150.344C99.4121 150.675 99.4601 151 99.4601 151.32V156.648C99.4601 156.755 99.4281 156.84 99.3641 156.904C99.3001 156.968 99.2147 157 99.1081 157H98.8361C98.7294 157 98.6441 156.968 98.5801 156.904C98.5161 156.84 98.4841 156.755 98.4841 156.648V155.896C98.3561 156.088 98.1747 156.28 97.9401 156.472C97.7054 156.664 97.4014 156.829 97.0281 156.968C96.6654 157.096 96.2067 157.16 95.6521 157.16ZM95.8121 156.232C96.3027 156.232 96.7507 156.125 97.1561 155.912C97.5614 155.699 97.8814 155.373 98.1161 154.936C98.3614 154.488 98.4841 153.928 98.4841 153.256V152.712L96.4201 153C95.5454 153.117 94.8841 153.32 94.4361 153.608C93.9881 153.896 93.7641 154.259 93.7641 154.696C93.7641 155.048 93.8654 155.336 94.0681 155.56C94.2707 155.784 94.5267 155.955 94.8361 156.072C95.1561 156.179 95.4814 156.232 95.8121 156.232ZM107.379 157C107.273 157 107.187 156.968 107.123 156.904C107.059 156.84 107.027 156.755 107.027 156.648V149.608H104.099C103.993 149.608 103.907 149.576 103.843 149.512C103.779 149.448 103.747 149.363 103.747 149.256V149.032C103.747 148.925 103.779 148.84 103.843 148.776C103.907 148.712 103.993 148.68 104.099 148.68H110.931C111.038 148.68 111.123 148.712 111.187 148.776C111.251 148.84 111.283 148.925 111.283 149.032V149.256C111.283 149.363 111.251 149.448 111.187 149.512C111.123 149.576 111.038 149.608 110.931 149.608H108.003V156.648C108.003 156.755 107.971 156.84 107.907 156.904C107.843 156.968 107.758 157 107.651 157H107.379ZM112.516 160.04C112.41 160.04 112.324 160.008 112.26 159.944C112.196 159.88 112.164 159.795 112.164 159.688V149.032C112.164 148.925 112.196 148.84 112.26 148.776C112.324 148.712 112.41 148.68 112.516 148.68H112.788C112.895 148.68 112.98 148.712 113.044 148.776C113.108 148.84 113.14 148.925 113.14 149.032V149.784C113.407 149.421 113.754 149.123 114.18 148.888C114.618 148.643 115.167 148.52 115.828 148.52C116.458 148.52 116.986 148.632 117.412 148.856C117.839 149.069 118.186 149.357 118.452 149.72C118.719 150.083 118.916 150.488 119.044 150.936C119.172 151.384 119.242 151.843 119.252 152.312C119.263 152.472 119.268 152.648 119.268 152.84C119.268 153.032 119.263 153.208 119.252 153.368C119.242 153.837 119.172 154.296 119.044 154.744C118.916 155.192 118.719 155.597 118.452 155.96C118.186 156.323 117.839 156.616 117.412 156.84C116.986 157.053 116.458 157.16 115.828 157.16C115.167 157.16 114.618 157.037 114.18 156.792C113.754 156.547 113.407 156.248 113.14 155.896V159.688C113.14 159.795 113.108 159.88 113.044 159.944C112.98 160.008 112.895 160.04 112.788 160.04H112.516ZM115.732 156.232C116.362 156.232 116.858 156.093 117.22 155.816C117.583 155.539 117.844 155.176 118.004 154.728C118.164 154.28 118.255 153.8 118.276 153.288C118.287 152.989 118.287 152.691 118.276 152.392C118.255 151.88 118.164 151.4 118.004 150.952C117.844 150.504 117.583 150.141 117.22 149.864C116.858 149.587 116.362 149.448 115.732 149.448C115.124 149.448 114.634 149.592 114.26 149.88C113.887 150.168 113.61 150.531 113.428 150.968C113.258 151.395 113.162 151.827 113.14 152.264C113.13 152.424 113.124 152.632 113.124 152.888C113.124 153.144 113.13 153.352 113.14 153.512C113.151 153.939 113.247 154.36 113.428 154.776C113.62 155.192 113.903 155.539 114.276 155.816C114.66 156.093 115.146 156.232 115.732 156.232ZM123.893 157.16C122.859 157.16 122.037 156.824 121.429 156.152C120.821 155.469 120.475 154.579 120.389 153.48C120.379 153.32 120.373 153.107 120.373 152.84C120.373 152.573 120.379 152.36 120.389 152.2C120.443 151.475 120.613 150.835 120.901 150.28C121.189 149.725 121.584 149.293 122.085 148.984C122.597 148.675 123.2 148.52 123.893 148.52C124.64 148.52 125.275 148.685 125.797 149.016C126.32 149.347 126.72 149.821 126.997 150.44C127.285 151.059 127.429 151.795 127.429 152.648V152.888C127.429 152.995 127.392 153.08 127.317 153.144C127.253 153.208 127.168 153.24 127.061 153.24H121.365C121.365 153.24 121.365 153.261 121.365 153.304C121.365 153.347 121.365 153.379 121.365 153.4C121.387 153.88 121.499 154.339 121.701 154.776C121.904 155.203 122.192 155.555 122.565 155.832C122.939 156.099 123.381 156.232 123.893 156.232C124.352 156.232 124.731 156.163 125.029 156.024C125.339 155.885 125.584 155.736 125.765 155.576C125.947 155.405 126.064 155.277 126.117 155.192C126.213 155.053 126.288 154.973 126.341 154.952C126.395 154.92 126.48 154.904 126.597 154.904H126.853C126.949 154.904 127.029 154.936 127.093 155C127.168 155.053 127.2 155.128 127.189 155.224C127.179 155.373 127.093 155.56 126.933 155.784C126.784 155.997 126.565 156.211 126.277 156.424C126 156.637 125.659 156.813 125.253 156.952C124.848 157.091 124.395 157.16 123.893 157.16ZM121.365 152.344H126.453V152.28C126.453 151.747 126.352 151.267 126.149 150.84C125.947 150.413 125.653 150.077 125.269 149.832C124.885 149.576 124.427 149.448 123.893 149.448C123.36 149.448 122.901 149.576 122.517 149.832C122.144 150.077 121.856 150.413 121.653 150.84C121.461 151.267 121.365 151.747 121.365 152.28V152.344ZM129.252 157C129.145 157 129.06 156.968 128.996 156.904C128.932 156.84 128.9 156.755 128.9 156.648V149.032C128.9 148.925 128.932 148.84 128.996 148.776C129.06 148.712 129.145 148.68 129.252 148.68H129.524C129.63 148.68 129.716 148.712 129.78 148.776C129.844 148.84 129.876 148.925 129.876 149.032V152.28H134.868V149.032C134.868 148.925 134.9 148.84 134.964 148.776C135.028 148.712 135.113 148.68 135.22 148.68H135.492C135.598 148.68 135.684 148.712 135.748 148.776C135.812 148.84 135.844 148.925 135.844 149.032V156.648C135.844 156.755 135.812 156.84 135.748 156.904C135.684 156.968 135.598 157 135.492 157H135.22C135.113 157 135.028 156.968 134.964 156.904C134.9 156.84 134.868 156.755 134.868 156.648V153.208H129.876V156.648C129.876 156.755 129.844 156.84 129.78 156.904C129.716 156.968 129.63 157 129.524 157H129.252ZM140.031 157.16C139.519 157.16 139.044 157.053 138.607 156.84C138.18 156.627 137.834 156.344 137.567 155.992C137.3 155.629 137.167 155.224 137.167 154.776C137.167 154.051 137.46 153.469 138.047 153.032C138.634 152.595 139.396 152.312 140.335 152.184L142.863 151.832V151.272C142.863 150.707 142.687 150.264 142.335 149.944C141.994 149.613 141.444 149.448 140.687 149.448C140.132 149.448 139.684 149.56 139.343 149.784C139.002 149.997 138.767 150.28 138.639 150.632C138.586 150.792 138.484 150.872 138.335 150.872H138.079C137.951 150.872 137.86 150.84 137.807 150.776C137.754 150.701 137.727 150.616 137.727 150.52C137.727 150.371 137.78 150.184 137.887 149.96C138.004 149.736 138.18 149.517 138.415 149.304C138.65 149.08 138.954 148.893 139.327 148.744C139.7 148.595 140.154 148.52 140.687 148.52C141.316 148.52 141.834 148.605 142.239 148.776C142.655 148.947 142.975 149.171 143.199 149.448C143.434 149.715 143.599 150.013 143.695 150.344C143.791 150.675 143.839 151 143.839 151.32V156.648C143.839 156.755 143.807 156.84 143.743 156.904C143.679 156.968 143.594 157 143.487 157H143.215C143.108 157 143.023 156.968 142.959 156.904C142.895 156.84 142.863 156.755 142.863 156.648V155.896C142.735 156.088 142.554 156.28 142.319 156.472C142.084 156.664 141.78 156.829 141.407 156.968C141.044 157.096 140.586 157.16 140.031 157.16ZM140.191 156.232C140.682 156.232 141.13 156.125 141.535 155.912C141.94 155.699 142.26 155.373 142.495 154.936C142.74 154.488 142.863 153.928 142.863 153.256V152.712L140.799 153C139.924 153.117 139.263 153.32 138.815 153.608C138.367 153.896 138.143 154.259 138.143 154.696C138.143 155.048 138.244 155.336 138.447 155.56C138.65 155.784 138.906 155.955 139.215 156.072C139.535 156.179 139.86 156.232 140.191 156.232ZM145.137 157C145.041 157 144.966 156.984 144.913 156.952C144.86 156.909 144.833 156.851 144.833 156.776C144.833 156.723 144.86 156.653 144.913 156.568L147.713 152.632L145.217 149.096C145.196 149.053 145.18 149.016 145.169 148.984C145.158 148.952 145.153 148.925 145.153 148.904C145.153 148.829 145.18 148.776 145.233 148.744C145.286 148.701 145.361 148.68 145.457 148.68H145.777C145.873 148.68 145.953 148.701 146.017 148.744C146.081 148.776 146.14 148.835 146.193 148.92L148.545 152.28H149.953V149.032C149.953 148.925 149.985 148.84 150.049 148.776C150.113 148.712 150.198 148.68 150.305 148.68H150.577C150.684 148.68 150.769 148.712 150.833 148.776C150.897 148.84 150.929 148.925 150.929 149.032V152.28H152.273L154.657 148.92C154.71 148.835 154.769 148.776 154.833 148.744C154.897 148.701 154.977 148.68 155.073 148.68H155.393C155.489 148.68 155.564 148.701 155.617 148.744C155.681 148.776 155.713 148.829 155.713 148.904C155.713 148.925 155.702 148.952 155.681 148.984C155.67 149.016 155.654 149.053 155.633 149.096L153.137 152.632L155.937 156.568C155.99 156.632 156.017 156.701 156.017 156.776C156.017 156.851 155.99 156.909 155.937 156.952C155.884 156.984 155.809 157 155.713 157H155.297C155.201 157 155.121 156.984 155.057 156.952C154.993 156.909 154.934 156.851 154.881 156.776L152.353 153.208H150.929V156.648C150.929 156.755 150.897 156.84 150.833 156.904C150.769 156.968 150.684 157 150.577 157H150.305C150.198 157 150.113 156.968 150.049 156.904C149.985 156.84 149.953 156.755 149.953 156.648V153.208H148.529L145.969 156.776C145.926 156.851 145.868 156.909 145.793 156.952C145.729 156.984 145.649 157 145.553 157H145.137ZM160.161 157.16C159.127 157.16 158.305 156.824 157.697 156.152C157.089 155.469 156.743 154.579 156.657 153.48C156.647 153.32 156.641 153.107 156.641 152.84C156.641 152.573 156.647 152.36 156.657 152.2C156.711 151.475 156.881 150.835 157.169 150.28C157.457 149.725 157.852 149.293 158.353 148.984C158.865 148.675 159.468 148.52 160.161 148.52C160.908 148.52 161.543 148.685 162.065 149.016C162.588 149.347 162.988 149.821 163.265 150.44C163.553 151.059 163.697 151.795 163.697 152.648V152.888C163.697 152.995 163.66 153.08 163.585 153.144C163.521 153.208 163.436 153.24 163.329 153.24H157.633C157.633 153.24 157.633 153.261 157.633 153.304C157.633 153.347 157.633 153.379 157.633 153.4C157.655 153.88 157.767 154.339 157.969 154.776C158.172 155.203 158.46 155.555 158.833 155.832C159.207 156.099 159.649 156.232 160.161 156.232C160.62 156.232 160.999 156.163 161.297 156.024C161.607 155.885 161.852 155.736 162.033 155.576C162.215 155.405 162.332 155.277 162.385 155.192C162.481 155.053 162.556 154.973 162.609 154.952C162.663 154.92 162.748 154.904 162.865 154.904H163.121C163.217 154.904 163.297 154.936 163.361 155C163.436 155.053 163.468 155.128 163.457 155.224C163.447 155.373 163.361 155.56 163.201 155.784C163.052 155.997 162.833 156.211 162.545 156.424C162.268 156.637 161.927 156.813 161.521 156.952C161.116 157.091 160.663 157.16 160.161 157.16ZM157.633 152.344H162.721V152.28C162.721 151.747 162.62 151.267 162.417 150.84C162.215 150.413 161.921 150.077 161.537 149.832C161.153 149.576 160.695 149.448 160.161 149.448C159.628 149.448 159.169 149.576 158.785 149.832C158.412 150.077 158.124 150.413 157.921 150.84C157.729 151.267 157.633 151.747 157.633 152.28V152.344ZM165.536 160.04C165.429 160.04 165.344 160.008 165.28 159.944C165.216 159.88 165.184 159.795 165.184 159.688V149.032C165.184 148.925 165.216 148.84 165.28 148.776C165.344 148.712 165.429 148.68 165.536 148.68H165.808C165.914 148.68 166 148.712 166.064 148.776C166.128 148.84 166.16 148.925 166.16 149.032V149.784C166.426 149.421 166.773 149.123 167.2 148.888C167.637 148.643 168.186 148.52 168.848 148.52C169.477 148.52 170.005 148.632 170.432 148.856C170.858 149.069 171.205 149.357 171.472 149.72C171.738 150.083 171.936 150.488 172.064 150.936C172.192 151.384 172.261 151.843 172.272 152.312C172.282 152.472 172.288 152.648 172.288 152.84C172.288 153.032 172.282 153.208 172.272 153.368C172.261 153.837 172.192 154.296 172.064 154.744C171.936 155.192 171.738 155.597 171.472 155.96C171.205 156.323 170.858 156.616 170.432 156.84C170.005 157.053 169.477 157.16 168.848 157.16C168.186 157.16 167.637 157.037 167.2 156.792C166.773 156.547 166.426 156.248 166.16 155.896V159.688C166.16 159.795 166.128 159.88 166.064 159.944C166 160.008 165.914 160.04 165.808 160.04H165.536ZM168.752 156.232C169.381 156.232 169.877 156.093 170.24 155.816C170.602 155.539 170.864 155.176 171.024 154.728C171.184 154.28 171.274 153.8 171.296 153.288C171.306 152.989 171.306 152.691 171.296 152.392C171.274 151.88 171.184 151.4 171.024 150.952C170.864 150.504 170.602 150.141 170.24 149.864C169.877 149.587 169.381 149.448 168.752 149.448C168.144 149.448 167.653 149.592 167.28 149.88C166.906 150.168 166.629 150.531 166.448 150.968C166.277 151.395 166.181 151.827 166.16 152.264C166.149 152.424 166.144 152.632 166.144 152.888C166.144 153.144 166.149 153.352 166.16 153.512C166.17 153.939 166.266 154.36 166.448 154.776C166.64 155.192 166.922 155.539 167.296 155.816C167.68 156.093 168.165 156.232 168.752 156.232ZM176.993 157.16C176.225 157.16 175.579 157 175.057 156.68C174.545 156.36 174.15 155.923 173.873 155.368C173.606 154.813 173.462 154.195 173.441 153.512C173.43 153.352 173.425 153.128 173.425 152.84C173.425 152.552 173.43 152.328 173.441 152.168C173.462 151.475 173.606 150.856 173.873 150.312C174.15 149.757 174.545 149.32 175.057 149C175.579 148.68 176.225 148.52 176.993 148.52C177.761 148.52 178.401 148.68 178.913 149C179.435 149.32 179.83 149.757 180.097 150.312C180.374 150.856 180.523 151.475 180.545 152.168C180.555 152.328 180.561 152.552 180.561 152.84C180.561 153.128 180.555 153.352 180.545 153.512C180.523 154.195 180.374 154.813 180.097 155.368C179.83 155.923 179.435 156.36 178.913 156.68C178.401 157 177.761 157.16 176.993 157.16ZM176.993 156.232C177.739 156.232 178.347 155.992 178.817 155.512C179.286 155.032 179.537 154.339 179.569 153.432C179.579 153.272 179.585 153.075 179.585 152.84C179.585 152.605 179.579 152.408 179.569 152.248C179.537 151.331 179.286 150.637 178.817 150.168C178.347 149.688 177.739 149.448 176.993 149.448C176.246 149.448 175.638 149.688 175.169 150.168C174.699 150.637 174.449 151.331 174.417 152.248C174.406 152.408 174.401 152.605 174.401 152.84C174.401 153.075 174.406 153.272 174.417 153.432C174.449 154.339 174.699 155.032 175.169 155.512C175.638 155.992 176.246 156.232 176.993 156.232ZM182.458 157C182.352 157 182.266 156.968 182.202 156.904C182.138 156.84 182.106 156.755 182.106 156.648V149.032C182.106 148.925 182.138 148.84 182.202 148.776C182.266 148.712 182.352 148.68 182.458 148.68H185.61C186.496 148.68 187.173 148.877 187.642 149.272C188.122 149.667 188.362 150.195 188.362 150.856C188.362 151.368 188.266 151.747 188.074 151.992C187.882 152.237 187.605 152.445 187.242 152.616C187.669 152.776 187.989 153.059 188.202 153.464C188.416 153.869 188.522 154.275 188.522 154.68C188.522 155.437 188.261 156.013 187.738 156.408C187.226 156.803 186.544 157 185.69 157H182.458ZM183.082 156.072H185.562C186.149 156.072 186.624 155.955 186.986 155.72C187.36 155.485 187.546 155.139 187.546 154.68C187.546 154.189 187.381 153.832 187.05 153.608C186.72 153.384 186.224 153.272 185.562 153.272H183.082V156.072ZM183.082 152.344H185.45C186.037 152.344 186.506 152.211 186.858 151.944C187.21 151.677 187.386 151.315 187.386 150.856C187.386 150.387 187.21 150.061 186.858 149.88C186.506 149.699 186.037 149.608 185.45 149.608H183.082V152.344Z" fill="white"/>
<path d="M3.584 139.952C4.15289 139.952 4.43733 139.781 4.43733 139.44V116.912C4.43733 116.571 4.38044 116.315 4.26667 116.144C4.15289 116.087 3.92533 116.059 3.584 116.059L1.10933 115.803V113.925H21.4187V120.581H18.944L18.0907 116.741C18.0907 116.514 18.0622 116.315 18.0053 116.144C17.8916 116.087 17.6924 116.059 17.408 116.059H8.78933V126.981H15.0187C15.3031 126.981 15.4453 126.839 15.4453 126.555C15.616 126.384 15.7013 126.213 15.7013 126.043L16.2133 123.056H18.0907V132.528H16.2133L15.7013 129.797C15.7013 129.627 15.616 129.428 15.4453 129.2C15.4453 129.086 15.3031 129.029 15.0187 129.029H8.78933V139.44C8.78933 139.554 8.84622 139.668 8.96 139.781C8.96 139.895 9.13067 139.952 9.472 139.952L12.2027 140.208V142H1.28V140.208L3.584 139.952ZM28.906 116.4C28.7353 116.4 28.65 116.571 28.65 116.912V139.184C28.65 139.355 28.7353 139.554 28.906 139.781C28.906 139.895 29.1051 139.952 29.5033 139.952L32.1487 140.208V142H20.97V140.208L23.53 139.952H23.9567C24.0704 139.952 24.1273 139.895 24.1273 139.781C24.2411 139.668 24.298 139.468 24.298 139.184V116.4C24.0704 116.172 23.8144 116.059 23.53 116.059L20.97 115.803V113.925H32.1487V115.803L29.5033 116.059C29.1051 116.059 28.906 116.172 28.906 116.4ZM51.5823 116.741C51.5823 116.514 51.5539 116.315 51.497 116.144C51.3832 116.144 51.3263 116.144 51.3263 116.144C51.3263 116.087 51.241 116.059 51.0703 116.059H44.9263V139.184C44.9263 139.298 44.9832 139.412 45.097 139.525C45.2108 139.582 45.2677 139.668 45.2677 139.781C45.3246 139.895 45.5521 139.952 45.9503 139.952L48.5957 140.208V142H37.161V140.208L39.977 139.952C40.3183 139.952 40.489 139.895 40.489 139.781C40.7734 139.611 40.9157 139.412 40.9157 139.184V116.059H34.7717C34.6579 116.059 34.601 116.087 34.601 116.144C34.601 116.144 34.5157 116.144 34.345 116.144C34.2312 116.315 34.1743 116.514 34.1743 116.741L33.6623 120.581H31.1877V113.925H54.9103V120.581H52.4357L51.5823 116.741ZM86.6993 116.4L85.9313 116.059C85.8744 116.059 85.59 115.916 85.078 115.632H83.3713C81.0389 115.632 79.3038 116.628 78.166 118.619C78.0522 118.903 77.9953 119.188 77.9953 119.472V121.52C77.9953 121.804 78.0522 122.089 78.166 122.373C78.3936 122.658 78.5927 122.914 78.7633 123.141C78.9909 123.312 79.2184 123.568 79.446 123.909C79.8442 124.251 80.4131 124.564 81.1527 124.848C81.6078 125.189 82.3189 125.531 83.286 125.872C84.7651 126.498 86.0451 127.067 87.126 127.579C87.5242 127.863 87.9509 128.148 88.406 128.432C88.8611 128.66 89.2593 128.944 89.6007 129.285C90.2833 129.968 90.7384 130.594 90.966 131.163C91.478 132.471 91.734 133.495 91.734 134.235H91.5633C91.5633 135.259 91.3927 136.311 91.0513 137.392C89.6291 139.383 88.406 140.635 87.382 141.147C85.9029 141.943 84.6229 142.398 83.542 142.512C82.4611 142.683 81.5224 142.768 80.726 142.768H78.7633C78.3082 142.768 77.8531 142.711 77.398 142.597C76.9998 142.484 76.6016 142.37 76.2033 142.256C75.8051 142.199 75.4069 142.114 75.0087 142C74.6673 141.886 74.326 141.772 73.9847 141.659C73.7002 141.488 73.3589 141.374 72.9607 141.317V133.808H75.7767L76.118 138.416C76.2318 138.53 76.2887 138.644 76.2887 138.757C76.4024 138.928 76.5162 139.07 76.63 139.184C76.8007 139.241 76.886 139.326 76.886 139.44L77.654 139.781C77.8247 139.781 77.9953 139.838 78.166 139.952L79.446 140.293C80.4131 140.293 81.238 140.293 81.9207 140.293C82.6033 140.293 83.1438 140.18 83.542 139.952C84.9073 139.668 85.846 139.156 86.358 138.416C86.5287 138.075 86.7278 137.79 86.9553 137.563C87.126 137.108 87.2113 136.425 87.2113 135.515C87.2113 134.548 86.9838 133.78 86.5287 133.211C86.358 132.812 86.102 132.5 85.7607 132.272C85.4193 132.044 85.0496 131.817 84.6513 131.589C83.798 130.964 83.0869 130.565 82.518 130.395C81.9491 130.167 81.4656 129.94 81.0673 129.712C80.6691 129.484 80.2709 129.314 79.8727 129.2C79.4744 128.916 79.0762 128.688 78.678 128.517C78.5073 128.46 77.9669 128.176 77.0567 127.664C76.2033 127.095 75.5491 126.583 75.094 126.128C74.07 125.104 73.558 123.596 73.558 121.605C73.558 120.126 73.814 118.988 74.326 118.192C74.7811 117.282 75.3784 116.428 76.118 115.632C76.8007 115.12 77.8531 114.551 79.2753 113.925C80.4131 113.584 81.4656 113.413 82.4327 113.413H84.31C84.6513 113.413 85.0211 113.499 85.4193 113.669L87.2113 113.755C88.1784 114.039 88.7473 114.238 88.918 114.352C89.7144 114.58 90.2833 114.693 90.6247 114.693V121.179H88.15L87.7233 117.339C87.3251 117.054 87.126 116.855 87.126 116.741C87.126 116.684 87.0691 116.656 86.9553 116.656V116.485H86.87C86.7562 116.485 86.6993 116.457 86.6993 116.4ZM105.395 126.043C105.566 125.872 105.651 125.758 105.651 125.701L106.163 122.715H108.041V132.187H106.163L105.651 129.2C105.651 129.029 105.566 128.859 105.395 128.688C105.395 128.517 105.196 128.432 104.798 128.432H98.7393V139.952H109.235C109.406 139.952 109.52 139.838 109.577 139.611C109.634 139.554 109.69 139.497 109.747 139.44C109.918 139.383 110.003 139.298 110.003 139.184L110.771 135.173H112.905V142H91.23V140.208L93.534 139.952H93.8753C93.9891 139.952 94.1029 139.838 94.2167 139.611C94.3304 139.326 94.3873 139.127 94.3873 139.013V116.741C94.3873 116.684 94.3304 116.571 94.2167 116.4C94.1029 116.172 93.9607 116.059 93.79 116.059C93.6762 116.059 93.5909 115.973 93.534 115.803L91.23 115.632V113.925H111.454V120.325H109.065L108.382 116.741C108.382 116.514 108.268 116.315 108.041 116.144C108.041 116.087 107.898 116.059 107.614 116.059H98.7393V126.384H104.798C105.196 126.384 105.395 126.27 105.395 126.043ZM122.267 127.579C123.689 127.579 124.685 127.436 125.254 127.152C126.79 127.152 127.842 126.555 128.411 125.36C128.582 125.019 128.809 124.592 129.094 124.08C129.606 123.17 129.719 121.975 129.435 120.496C129.321 120.041 129.151 119.671 128.923 119.387C128.752 118.59 128.354 117.964 127.728 117.509C127.387 117.339 127.017 117.168 126.619 116.997C126.278 116.77 125.879 116.571 125.424 116.4C124.799 116.229 123.689 116.144 122.096 116.144H120.304V127.579H122.267ZM138.566 142.171C138.452 142.171 138.367 142.256 138.31 142.427C138.025 142.427 137.826 142.484 137.712 142.597C137.314 142.597 137.001 142.654 136.774 142.768H135.92C133.645 142.768 132.023 142.085 131.056 140.72C130.487 140.265 130.118 139.582 129.947 138.672C129.719 138.331 129.549 137.932 129.435 137.477C129.378 137.022 129.293 136.596 129.179 136.197C128.553 133.865 127.871 132.329 127.131 131.589C126.733 131.191 126.107 130.708 125.254 130.139C124.173 129.74 123.12 129.541 122.096 129.541H120.731C120.617 129.712 120.532 129.797 120.475 129.797H120.304V139.184C120.304 139.468 120.333 139.668 120.39 139.781C120.503 139.895 120.759 139.952 121.158 139.952L123.376 140.208V142H112.795V140.208L115.099 139.952C115.44 139.952 115.668 139.895 115.782 139.781C115.895 139.668 115.952 139.468 115.952 139.184V116.571C115.952 116.457 115.895 116.4 115.782 116.4C115.497 116.172 115.27 116.059 115.099 116.059L112.795 115.803V113.925H123.718C126.79 113.925 129.35 114.494 131.398 115.632C132.194 116.315 132.877 117.14 133.446 118.107C133.787 118.903 133.958 119.927 133.958 121.179C133.958 123.284 133.275 125.019 131.91 126.384C131.398 126.896 130.63 127.351 129.606 127.749C128.98 128.091 128.155 128.318 127.131 128.432C127.814 128.603 128.354 128.802 128.752 129.029C129.151 129.2 129.549 129.371 129.947 129.541C130.175 129.826 130.431 130.11 130.715 130.395C130.999 130.679 131.284 130.964 131.568 131.248C131.682 131.646 131.796 131.988 131.91 132.272C132.023 132.5 132.137 132.784 132.251 133.125C132.422 133.467 132.535 133.836 132.592 134.235C132.649 134.576 132.735 134.917 132.848 135.259C132.962 135.6 133.019 135.941 133.019 136.283C133.019 136.624 133.076 136.937 133.19 137.221C133.474 137.733 133.787 138.274 134.128 138.843C134.811 139.355 135.408 139.724 135.92 139.952C136.717 140.18 137.599 140.293 138.566 140.293V142.171ZM152.634 142.768H149.476L139.834 116.144L137.359 115.803V113.925H147.428V115.803L144.954 116.059C144.726 116.059 144.612 116.172 144.612 116.4C144.498 116.4 144.442 116.514 144.442 116.741L151.866 137.392L158.948 116.741C159.005 116.684 159.034 116.628 159.034 116.571C159.034 116.457 158.948 116.343 158.778 116.229C158.664 116.116 158.55 116.059 158.436 116.059L156.132 115.803V113.925H164.495V115.803L161.85 116.144L152.634 142.768ZM172.361 116.4C172.19 116.4 172.105 116.571 172.105 116.912V139.184C172.105 139.355 172.19 139.554 172.361 139.781C172.361 139.895 172.56 139.952 172.958 139.952L175.604 140.208V142H164.425V140.208L166.985 139.952H167.412C167.525 139.952 167.582 139.895 167.582 139.781C167.696 139.668 167.753 139.468 167.753 139.184V116.4C167.525 116.172 167.269 116.059 166.985 116.059L164.425 115.803V113.925H175.604V115.803L172.958 116.059C172.56 116.059 172.361 116.172 172.361 116.4ZM198.451 141.061H198.109C198.052 141.061 197.882 141.118 197.597 141.232C197.37 141.346 197.085 141.46 196.744 141.573C196.403 141.63 196.033 141.716 195.635 141.829C193.473 142.455 191.795 142.768 190.6 142.768C188.495 142.768 186.248 142.313 183.859 141.403C181.697 140.606 179.791 139.042 178.141 136.709C177.743 136.084 177.316 135.259 176.861 134.235C176.406 133.154 176.122 132.272 176.008 131.589C175.61 130.565 175.411 129.172 175.411 127.408C175.411 123.54 176.776 120.183 179.507 117.339C180.474 116.315 182.038 115.319 184.2 114.352C186.077 113.612 188.068 113.243 190.173 113.243H191.112C191.396 113.243 191.652 113.271 191.88 113.328C192.164 113.385 192.876 113.527 194.013 113.755C194.639 113.755 195.436 113.925 196.403 114.267C197.37 114.608 198.052 114.836 198.451 114.949V121.435H195.891L195.379 117.595C195.379 117.538 195.322 117.481 195.208 117.424C195.094 117.367 194.98 117.253 194.867 117.083C194.753 116.855 194.639 116.741 194.525 116.741C194.412 116.741 194.241 116.628 194.013 116.4C193.786 116.4 193.587 116.372 193.416 116.315C193.302 116.201 193.132 116.116 192.904 116.059L191.795 115.803C191.51 115.689 190.998 115.632 190.259 115.632C188.154 115.632 186.248 116.229 184.541 117.424C184.029 117.765 183.574 118.22 183.176 118.789C182.323 119.643 181.583 120.951 180.957 122.715C180.787 123.511 180.616 124.308 180.445 125.104C180.275 125.9 180.189 126.811 180.189 127.835C180.189 129.086 180.445 130.821 180.957 133.04C181.526 134.633 182.266 135.941 183.176 136.965C183.916 138.103 184.996 138.985 186.419 139.611C187.329 140.066 188.808 140.293 190.856 140.293H192.051L192.819 140.123C192.989 140.123 193.132 140.066 193.245 139.952C193.644 139.952 193.9 139.895 194.013 139.781C194.127 139.781 194.184 139.724 194.184 139.611C194.582 139.611 194.781 139.468 194.781 139.184C194.952 139.184 195.037 139.07 195.037 138.843L196.061 134.235H198.451V141.061ZM212.595 126.043C212.766 125.872 212.851 125.758 212.851 125.701L213.363 122.715H215.241V132.187H213.363L212.851 129.2C212.851 129.029 212.766 128.859 212.595 128.688C212.595 128.517 212.396 128.432 211.998 128.432H205.939V139.952H216.435C216.606 139.952 216.72 139.838 216.777 139.611C216.834 139.554 216.89 139.497 216.947 139.44C217.118 139.383 217.203 139.298 217.203 139.184L217.971 135.173H220.105V142H198.43V140.208L200.734 139.952H201.075C201.189 139.952 201.303 139.838 201.417 139.611C201.53 139.326 201.587 139.127 201.587 139.013V116.741C201.587 116.684 201.53 116.571 201.417 116.4C201.303 116.172 201.161 116.059 200.99 116.059C200.876 116.059 200.791 115.973 200.734 115.803L198.43 115.632V113.925H218.654V120.325H216.265L215.582 116.741C215.582 116.514 215.468 116.315 215.241 116.144C215.241 116.087 215.098 116.059 214.814 116.059H205.939V126.384H211.998C212.396 126.384 212.595 126.27 212.595 126.043Z" fill="url(#paint0_linear_314_71)"/>
<path d="M148 1H139L106 58.5L104.5 67L111 62L148 1Z" fill="url(#paint1_linear_314_71)" stroke="url(#paint2_linear_314_71)"/>
<path d="M165 1H157L116 70L115 79L122 73.5L165 1Z" fill="url(#paint3_linear_314_71)" stroke="url(#paint4_linear_314_71)"/>
<path d="M182.5 1H174H173.5L127 80L125.5 90L133 84L182.5 1Z" fill="url(#paint5_linear_314_71)" stroke="url(#paint6_linear_314_71)"/>
<path d="M199.5 1H191H190.5L137 91L135 100.5L142 95L199.5 1Z" fill="url(#paint7_linear_314_71)" stroke="url(#paint8_linear_314_71)"/>
<path d="M131 107.5L116 92H115.5H107L122 107.5H131Z" fill="url(#paint9_linear_314_71)" stroke="url(#paint10_linear_314_71)"/>
<path d="M112 107.5L97 92H96.5H88L103 107.5H112Z" fill="url(#paint11_linear_314_71)" stroke="url(#paint12_linear_314_71)"/>
<path d="M93 107.5L78 92H77.5H69L84 107.5H93Z" fill="url(#paint13_linear_314_71)" stroke="url(#paint14_linear_314_71)"/>
<path d="M74 107.5L59 92H58.5H50L65 107.5H74Z" fill="url(#paint15_linear_314_71)" stroke="url(#paint16_linear_314_71)"/>
<path d="M112 87.5L97 72H96.5H88L103 87.5H112Z" fill="url(#paint17_linear_314_71)" stroke="url(#paint18_linear_314_71)"/>
<path d="M93 87.5L78 72H77.5H69L84 87.5H93Z" fill="url(#paint19_linear_314_71)" stroke="url(#paint20_linear_314_71)"/>
<path d="M74 87.5L59 72H58.5H50L65 87.5H74Z" fill="url(#paint21_linear_314_71)" stroke="url(#paint22_linear_314_71)"/>
<path d="M55 87.5L40 72H39.5H31L46 87.5H55Z" fill="url(#paint23_linear_314_71)" stroke="url(#paint24_linear_314_71)"/>
<path d="M91 67.5L76 52H75.5H67L82 67.5H91Z" fill="url(#paint25_linear_314_71)" stroke="url(#paint26_linear_314_71)"/>
<path d="M72 67.5L57 52H56.5H48L63 67.5H72Z" fill="url(#paint27_linear_314_71)" stroke="url(#paint28_linear_314_71)"/>
<path d="M53 67.5L38 52H37.5H29L44 67.5H53Z" fill="url(#paint29_linear_314_71)" stroke="url(#paint30_linear_314_71)"/>
<path d="M34 67.5L19 52H18.5H10L25 67.5H34Z" fill="url(#paint31_linear_314_71)" stroke="url(#paint32_linear_314_71)"/>
<defs>
<linearGradient id="paint0_linear_314_71" x1="6" y1="128.5" x2="362.503" y2="131.708" gradientUnits="userSpaceOnUse">
<stop stop-color="#C3AB58"/>
<stop offset="0.308908" stop-color="#F6F5A1"/>
<stop offset="0.743349" stop-color="#C2AA57"/>
</linearGradient>
<linearGradient id="paint1_linear_314_71" x1="130.5" y1="1" x2="130.5" y2="61" gradientUnits="userSpaceOnUse">
<stop stop-color="#C2AA57"/>
<stop offset="0.489583" stop-color="#F2F19D"/>
<stop offset="1" stop-color="#C4AF5E"/>
</linearGradient>
<linearGradient id="paint2_linear_314_71" x1="130.5" y1="1" x2="130.5" y2="61" gradientUnits="userSpaceOnUse">
<stop stop-color="#C2AA57"/>
<stop offset="0.479167" stop-color="#F2EF9B"/>
<stop offset="1" stop-color="#C7B463"/>
</linearGradient>
<linearGradient id="paint3_linear_314_71" x1="143.5" y1="1" x2="143.5" y2="76" gradientUnits="userSpaceOnUse">
<stop stop-color="#C2AA57"/>
<stop offset="0.489583" stop-color="#F2F19D"/>
<stop offset="1" stop-color="#C4AF5E"/>
</linearGradient>
<linearGradient id="paint4_linear_314_71" x1="143.5" y1="1" x2="143.5" y2="76" gradientUnits="userSpaceOnUse">
<stop stop-color="#C2AA57"/>
<stop offset="0.479167" stop-color="#F2EF9B"/>
<stop offset="1" stop-color="#C7B463"/>
</linearGradient>
<linearGradient id="paint5_linear_314_71" x1="156.25" y1="1" x2="156.25" y2="91.5" gradientUnits="userSpaceOnUse">
<stop stop-color="#C2AA57"/>
<stop offset="0.489583" stop-color="#F2F19D"/>
<stop offset="1" stop-color="#C4AF5E"/>
</linearGradient>
<linearGradient id="paint6_linear_314_71" x1="156.25" y1="1" x2="156.25" y2="91.5" gradientUnits="userSpaceOnUse">
<stop stop-color="#C2AA57"/>
<stop offset="0.479167" stop-color="#F2EF9B"/>
<stop offset="1" stop-color="#C7B463"/>
</linearGradient>
<linearGradient id="paint7_linear_314_71" x1="169.25" y1="1" x2="169.25" y2="106" gradientUnits="userSpaceOnUse">
<stop stop-color="#C2AA57"/>
<stop offset="0.489583" stop-color="#F2F19D"/>
<stop offset="1" stop-color="#C4AF5E"/>
</linearGradient>
<linearGradient id="paint8_linear_314_71" x1="169.25" y1="1" x2="169.25" y2="106" gradientUnits="userSpaceOnUse">
<stop stop-color="#C2AA57"/>
<stop offset="0.479167" stop-color="#F2EF9B"/>
<stop offset="1" stop-color="#C7B463"/>
</linearGradient>
<linearGradient id="paint9_linear_314_71" x1="119" y1="92" x2="119" y2="107.5" gradientUnits="userSpaceOnUse">
<stop stop-color="#C2AA57"/>
<stop offset="0.505208" stop-color="#F6F5A1"/>
<stop offset="1" stop-color="#C9B765"/>
</linearGradient>
<linearGradient id="paint10_linear_314_71" x1="119" y1="92" x2="119" y2="107.5" gradientUnits="userSpaceOnUse">
<stop stop-color="#C2AA57"/>
<stop offset="0.494792" stop-color="#F3F29E"/>
<stop offset="1" stop-color="#C4AF5E"/>
</linearGradient>
<linearGradient id="paint11_linear_314_71" x1="100" y1="92" x2="100" y2="107.5" gradientUnits="userSpaceOnUse">
<stop stop-color="#C2AA57"/>
<stop offset="0.505208" stop-color="#F6F5A1"/>
<stop offset="1" stop-color="#C9B765"/>
</linearGradient>
<linearGradient id="paint12_linear_314_71" x1="100" y1="92" x2="100" y2="107.5" gradientUnits="userSpaceOnUse">
<stop stop-color="#C2AA57"/>
<stop offset="0.494792" stop-color="#F3F29E"/>
<stop offset="1" stop-color="#C4AF5E"/>
</linearGradient>
<linearGradient id="paint13_linear_314_71" x1="81" y1="92" x2="81" y2="107.5" gradientUnits="userSpaceOnUse">
<stop stop-color="#C2AA57"/>
<stop offset="0.505208" stop-color="#F6F5A1"/>
<stop offset="1" stop-color="#C9B765"/>
</linearGradient>
<linearGradient id="paint14_linear_314_71" x1="81" y1="92" x2="81" y2="107.5" gradientUnits="userSpaceOnUse">
<stop stop-color="#C2AA57"/>
<stop offset="0.494792" stop-color="#F3F29E"/>
<stop offset="1" stop-color="#C4AF5E"/>
</linearGradient>
<linearGradient id="paint15_linear_314_71" x1="62" y1="92" x2="62" y2="107.5" gradientUnits="userSpaceOnUse">
<stop stop-color="#C2AA57"/>
<stop offset="0.505208" stop-color="#F6F5A1"/>
<stop offset="1" stop-color="#C9B765"/>
</linearGradient>
<linearGradient id="paint16_linear_314_71" x1="62" y1="92" x2="62" y2="107.5" gradientUnits="userSpaceOnUse">
<stop stop-color="#C2AA57"/>
<stop offset="0.494792" stop-color="#F3F29E"/>
<stop offset="1" stop-color="#C4AF5E"/>
</linearGradient>
<linearGradient id="paint17_linear_314_71" x1="100" y1="72" x2="100" y2="87.5" gradientUnits="userSpaceOnUse">
<stop stop-color="#C2AA57"/>
<stop offset="0.505208" stop-color="#F6F5A1"/>
<stop offset="1" stop-color="#C9B765"/>
</linearGradient>
<linearGradient id="paint18_linear_314_71" x1="100" y1="72" x2="100" y2="87.5" gradientUnits="userSpaceOnUse">
<stop stop-color="#C2AA57"/>
<stop offset="0.494792" stop-color="#F3F29E"/>
<stop offset="1" stop-color="#C4AF5E"/>
</linearGradient>
<linearGradient id="paint19_linear_314_71" x1="81" y1="72" x2="81" y2="87.5" gradientUnits="userSpaceOnUse">
<stop stop-color="#C2AA57"/>
<stop offset="0.505208" stop-color="#F6F5A1"/>
<stop offset="1" stop-color="#C9B765"/>
</linearGradient>
<linearGradient id="paint20_linear_314_71" x1="81" y1="72" x2="81" y2="87.5" gradientUnits="userSpaceOnUse">
<stop stop-color="#C2AA57"/>
<stop offset="0.494792" stop-color="#F3F29E"/>
<stop offset="1" stop-color="#C4AF5E"/>
</linearGradient>
<linearGradient id="paint21_linear_314_71" x1="62" y1="72" x2="62" y2="87.5" gradientUnits="userSpaceOnUse">
<stop stop-color="#C2AA57"/>
<stop offset="0.505208" stop-color="#F6F5A1"/>
<stop offset="1" stop-color="#C9B765"/>
</linearGradient>
<linearGradient id="paint22_linear_314_71" x1="62" y1="72" x2="62" y2="87.5" gradientUnits="userSpaceOnUse">
<stop stop-color="#C2AA57"/>
<stop offset="0.494792" stop-color="#F3F29E"/>
<stop offset="1" stop-color="#C4AF5E"/>
</linearGradient>
<linearGradient id="paint23_linear_314_71" x1="43" y1="72" x2="43" y2="87.5" gradientUnits="userSpaceOnUse">
<stop stop-color="#C2AA57"/>
<stop offset="0.505208" stop-color="#F6F5A1"/>
<stop offset="1" stop-color="#C9B765"/>
</linearGradient>
<linearGradient id="paint24_linear_314_71" x1="43" y1="72" x2="43" y2="87.5" gradientUnits="userSpaceOnUse">
<stop stop-color="#C2AA57"/>
<stop offset="0.494792" stop-color="#F3F29E"/>
<stop offset="1" stop-color="#C4AF5E"/>
</linearGradient>
<linearGradient id="paint25_linear_314_71" x1="79" y1="52" x2="79" y2="67.5" gradientUnits="userSpaceOnUse">
<stop stop-color="#C2AA57"/>
<stop offset="0.505208" stop-color="#F6F5A1"/>
<stop offset="1" stop-color="#C9B765"/>
</linearGradient>
<linearGradient id="paint26_linear_314_71" x1="79" y1="52" x2="79" y2="67.5" gradientUnits="userSpaceOnUse">
<stop stop-color="#C2AA57"/>
<stop offset="0.494792" stop-color="#F3F29E"/>
<stop offset="1" stop-color="#C4AF5E"/>
</linearGradient>
<linearGradient id="paint27_linear_314_71" x1="60" y1="52" x2="60" y2="67.5" gradientUnits="userSpaceOnUse">
<stop stop-color="#C2AA57"/>
<stop offset="0.505208" stop-color="#F6F5A1"/>
<stop offset="1" stop-color="#C9B765"/>
</linearGradient>
<linearGradient id="paint28_linear_314_71" x1="60" y1="52" x2="60" y2="67.5" gradientUnits="userSpaceOnUse">
<stop stop-color="#C2AA57"/>
<stop offset="0.494792" stop-color="#F3F29E"/>
<stop offset="1" stop-color="#C4AF5E"/>
</linearGradient>
<linearGradient id="paint29_linear_314_71" x1="41" y1="52" x2="41" y2="67.5" gradientUnits="userSpaceOnUse">
<stop stop-color="#C2AA57"/>
<stop offset="0.505208" stop-color="#F6F5A1"/>
<stop offset="1" stop-color="#C9B765"/>
</linearGradient>
<linearGradient id="paint30_linear_314_71" x1="41" y1="52" x2="41" y2="67.5" gradientUnits="userSpaceOnUse">
<stop stop-color="#C2AA57"/>
<stop offset="0.494792" stop-color="#F3F29E"/>
<stop offset="1" stop-color="#C4AF5E"/>
</linearGradient>
<linearGradient id="paint31_linear_314_71" x1="22" y1="52" x2="22" y2="67.5" gradientUnits="userSpaceOnUse">
<stop stop-color="#C2AA57"/>
<stop offset="0.505208" stop-color="#F6F5A1"/>
<stop offset="1" stop-color="#C9B765"/>
</linearGradient>
<linearGradient id="paint32_linear_314_71" x1="22" y1="52" x2="22" y2="67.5" gradientUnits="userSpaceOnUse">
<stop stop-color="#C2AA57"/>
<stop offset="0.494792" stop-color="#F3F29E"/>
<stop offset="1" stop-color="#C4AF5E"/>
</linearGradient>
</defs>
</svg>
